{
	"asset":{
		"generator":"Khronos glTF Blender I/O v3.6.27",
		"version":"2.0"
	},
	"scene":0,
	"scenes":[
		{
			"name":"Scene",
			"nodes":[
				0,
				1,
				2,
				3
			]
		}
	],
	"nodes":[
		{
			"mesh":0,
			"name":"Herz",
			"translation":[
				-0.010560343973338604,
				-0.012721508741378784,
				-0.07567831128835678
			]
		},
		{
			"mesh":1,
			"name":"Lunge_links",
			"translation":[
				-0.010560343973338604,
				-0.012721508741378784,
				-0.07567831128835678
			]
		},
		{
			"mesh":2,
			"name":"Lunge_rechts",
			"translation":[
				-0.010560343973338604,
				-0.012721508741378784,
				-0.07567831128835678
			]
		},
		{
			"mesh":3,
			"name":"Trachea",
			"translation":[
				-0.010560343973338604,
				-0.012721508741378784,
				-0.07567831128835678
			]
		}
	],
	"materials":[
		{
			"doubleSided":true,
			"name":"Material",
			"normalTexture":{
				"index":0,
				"scale":1.5
			},
			"pbrMetallicRoughness":{
				"baseColorTexture":{
					"index":1
				},
				"metallicFactor":0,
				"roughnessFactor":0.3031921982765198
			}
		}
	],
	"meshes":[
		{
			"name":"Circle",
			"primitives":[
				{
					"attributes":{
						"POSITION":0,
						"NORMAL":1,
						"TEXCOORD_0":2
					},
					"indices":3,
					"material":0
				}
			]
		},
		{
			"name":"Circle.001",
			"primitives":[
				{
					"attributes":{
						"POSITION":4,
						"NORMAL":5,
						"TEXCOORD_0":6
					},
					"indices":7,
					"material":0
				}
			]
		},
		{
			"name":"Circle.002",
			"primitives":[
				{
					"attributes":{
						"POSITION":8,
						"NORMAL":9,
						"TEXCOORD_0":10
					},
					"indices":11,
					"material":0
				}
			]
		},
		{
			"name":"Circle.003",
			"primitives":[
				{
					"attributes":{
						"POSITION":12,
						"NORMAL":13,
						"TEXCOORD_0":14
					},
					"indices":15,
					"material":0
				}
			]
		}
	],
	"textures":[
		{
			"sampler":0,
			"source":0
		},
		{
			"sampler":0,
			"source":1
		}
	],
	"images":[
		{
			"mimeType":"image/jpeg",
			"name":"normal",
			"uri":"normal.jpg"
		},
		{
			"mimeType":"image/jpeg",
			"name":"tex",
			"uri":"tex.jpg"
		}
	],
	"accessors":[
		{
			"bufferView":0,
			"componentType":5126,
			"count":13995,
			"max":[
				0.06869873404502869,
				0.07007433474063873,
				0.11765237152576447
			],
			"min":[
				-0.0261460542678833,
				-0.04730316624045372,
				0.03663967177271843
			],
			"type":"VEC3"
		},
		{
			"bufferView":1,
			"componentType":5126,
			"count":13995,
			"type":"VEC3"
		},
		{
			"bufferView":2,
			"componentType":5126,
			"count":13995,
			"type":"VEC2"
		},
		{
			"bufferView":3,
			"componentType":5123,
			"count":56640,
			"type":"SCALAR"
		},
		{
			"bufferView":4,
			"componentType":5126,
			"count":3754,
			"max":[
				0.09307864308357239,
				0.06394112855195999,
				0.1139315739274025
			],
			"min":[
				0.020887672901153564,
				-0.05920691788196564,
				0.02330593764781952
			],
			"type":"VEC3"
		},
		{
			"bufferView":5,
			"componentType":5126,
			"count":3754,
			"type":"VEC3"
		},
		{
			"bufferView":6,
			"componentType":5126,
			"count":3754,
			"type":"VEC2"
		},
		{
			"bufferView":7,
			"componentType":5123,
			"count":17064,
			"type":"SCALAR"
		},
		{
			"bufferView":8,
			"componentType":5126,
			"count":4853,
			"max":[
				0.006667994894087315,
				0.06540919840335846,
				0.11901482939720154
			],
			"min":[
				-0.06382882595062256,
				-0.06079478934407234,
				0.025920763611793518
			],
			"type":"VEC3"
		},
		{
			"bufferView":9,
			"componentType":5126,
			"count":4853,
			"type":"VEC3"
		},
		{
			"bufferView":10,
			"componentType":5126,
			"count":4853,
			"type":"VEC2"
		},
		{
			"bufferView":11,
			"componentType":5123,
			"count":22668,
			"type":"SCALAR"
		},
		{
			"bufferView":12,
			"componentType":5126,
			"count":11087,
			"max":[
				0.05104110389947891,
				0.10541396588087082,
				0.0661916509270668
			],
			"min":[
				-0.00544228870421648,
				0.005505709908902645,
				0.044404517859220505
			],
			"type":"VEC3"
		},
		{
			"bufferView":13,
			"componentType":5126,
			"count":11087,
			"type":"VEC3"
		},
		{
			"bufferView":14,
			"componentType":5126,
			"count":11087,
			"type":"VEC2"
		},
		{
			"bufferView":15,
			"componentType":5123,
			"count":58320,
			"type":"SCALAR"
		}
	],
	"bufferViews":[
		{
			"buffer":0,
			"byteLength":167940,
			"byteOffset":0,
			"target":34962
		},
		{
			"buffer":0,
			"byteLength":167940,
			"byteOffset":167940,
			"target":34962
		},
		{
			"buffer":0,
			"byteLength":111960,
			"byteOffset":335880,
			"target":34962
		},
		{
			"buffer":0,
			"byteLength":113280,
			"byteOffset":447840,
			"target":34963
		},
		{
			"buffer":0,
			"byteLength":45048,
			"byteOffset":561120,
			"target":34962
		},
		{
			"buffer":0,
			"byteLength":45048,
			"byteOffset":606168,
			"target":34962
		},
		{
			"buffer":0,
			"byteLength":30032,
			"byteOffset":651216,
			"target":34962
		},
		{
			"buffer":0,
			"byteLength":34128,
			"byteOffset":681248,
			"target":34963
		},
		{
			"buffer":0,
			"byteLength":58236,
			"byteOffset":715376,
			"target":34962
		},
		{
			"buffer":0,
			"byteLength":58236,
			"byteOffset":773612,
			"target":34962
		},
		{
			"buffer":0,
			"byteLength":38824,
			"byteOffset":831848,
			"target":34962
		},
		{
			"buffer":0,
			"byteLength":45336,
			"byteOffset":870672,
			"target":34963
		},
		{
			"buffer":0,
			"byteLength":133044,
			"byteOffset":916008,
			"target":34962
		},
		{
			"buffer":0,
			"byteLength":133044,
			"byteOffset":1049052,
			"target":34962
		},
		{
			"buffer":0,
			"byteLength":88696,
			"byteOffset":1182096,
			"target":34962
		},
		{
			"buffer":0,
			"byteLength":116640,
			"byteOffset":1270792,
			"target":34963
		}
	],
	"samplers":[
		{
			"magFilter":9729,
			"minFilter":9987
		}
	],
	"buffers":[
		{
			"byteLength":1387432,
			"uri":"Thorax.bin"
		}
	]
}
