{
  "accessors": [
    {
      "bufferView": 2,
      "componentType": 5126,
      "count": 6024,
      "max": [
        208.33230590820313,
        172.45884704589844,
        128.45872497558594
      ],
      "min": [
        -208.33230590820313,
        -176.48304748535156,
        29.689064025878906
      ],
      "type": "VEC3"
    },
    {
      "bufferView": 2,
      "byteOffset": 72288,
      "componentType": 5126,
      "count": 6024,
      "max": [
        1.0,
        1.0,
        1.0
      ],
      "min": [
        -1.0,
        -1.0,
        -1.0
      ],
      "type": "VEC3"
    },
    {
      "bufferView": 3,
      "componentType": 5126,
      "count": 6024,
      "max": [
        1.0,
        1.0,
        1.0,
        1.0
      ],
      "min": [
        -1.0,
        -1.0,
        -1.0,
        -1.0
      ],
      "type": "VEC4"
    },
    {
      "bufferView": 1,
      "componentType": 5126,
      "count": 6024,
      "max": [
        0.9979999661445618,
        0.9964219927787781
      ],
      "min": [
        0.0020000000949949026,
        0.0020000000949949026
      ],
      "type": "VEC2"
    },
    {
      "bufferView": 0,
      "componentType": 5125,
      "count": 18780,
      "type": "SCALAR"
    },
    {
      "bufferView": 2,
      "byteOffset": 144576,
      "componentType": 5126,
      "count": 64,
      "max": [
        10.073195457458496,
        4.143474102020264,
        100.72994995117188
      ],
      "min": [
        -10.073195457458496,
        -40.40895080566406,
        88.94575500488281
      ],
      "type": "VEC3"
    },
    {
      "bufferView": 2,
      "byteOffset": 145344,
      "componentType": 5126,
      "count": 64,
      "max": [
        0.8558905124664307,
        0.07387675344944,
        0.9999731779098511
      ],
      "min": [
        -0.8558905124664307,
        -0.6719423532485962,
        0.48512905836105347
      ],
      "type": "VEC3"
    },
    {
      "bufferView": 3,
      "byteOffset": 96384,
      "componentType": 5126,
      "count": 64,
      "max": [
        0.1677900105714798,
        0.9918708205223083,
        0.1275366097688675,
        1.0
      ],
      "min": [
        -0.14207613468170166,
        -1.0,
        -0.6719423532485962,
        1.0
      ],
      "type": "VEC4"
    },
    {
      "bufferView": 1,
      "byteOffset": 48192,
      "componentType": 5126,
      "count": 64,
      "max": [
        0.4271371066570282,
        0.9397154450416565
      ],
      "min": [
        0.29591837525367737,
        0.5282384157180786
      ],
      "type": "VEC2"
    },
    {
      "bufferView": 0,
      "byteOffset": 75120,
      "componentType": 5125,
      "count": 114,
      "type": "SCALAR"
    }
  ],
  "asset": {
    "extras": {
      "author": "Renafox (https://sketchfab.com/kryik1023)",
      "license": "CC-BY-NC-4.0 (http://creativecommons.org/licenses/by-nc/4.0/)",
      "source": "https://sketchfab.com/3d-models/supermarine-spitfire-8349f26e1e88455da75dd7352b02b794",
      "title": "Supermarine Spitfire"
    },
    "generator": "Sketchfab-12.68.0",
    "version": "2.0"
  },
  "bufferViews": [
    {
      "buffer": 0,
      "byteLength": 75576,
      "name": "floatBufferViews",
      "target": 34963
    },
    {
      "buffer": 0,
      "byteLength": 48704,
      "byteOffset": 75576,
      "byteStride": 8,
      "name": "floatBufferViews",
      "target": 34962
    },
    {
      "buffer": 0,
      "byteLength": 146112,
      "byteOffset": 124280,
      "byteStride": 12,
      "name": "floatBufferViews",
      "target": 34962
    },
    {
      "buffer": 0,
      "byteLength": 97408,
      "byteOffset": 270392,
      "byteStride": 16,
      "name": "floatBufferViews",
      "target": 34962
    }
  ],
  "buffers": [
    {
      "byteLength": 367800,
      "uri": "scene.bin"
    }
  ],
  "images": [
    {
      "uri": "textures/Material_85_baseColor.png"
    },
    {
      "uri": "textures/Material_85_metallicRoughness.png"
    },
    {
      "uri": "textures/Material_85_normal.png"
    },
    {
      "uri": "textures/Material_86_baseColor.png"
    }
  ],
  "materials": [
    {
      "doubleSided": true,
      "name": "Material_85",
      "normalTexture": {
        "index": 2
      },
      "occlusionTexture": {
        "index": 1
      },
      "pbrMetallicRoughness": {
        "baseColorTexture": {
          "index": 0
        },
        "metallicRoughnessTexture": {
          "index": 1
        }
      }
    },
    {
      "alphaMode": "BLEND",
      "doubleSided": true,
      "name": "Material_86",
      "normalTexture": {
        "index": 2
      },
      "occlusionTexture": {
        "index": 1
      },
      "pbrMetallicRoughness": {
        "baseColorTexture": {
          "index": 3
        },
        "metallicRoughnessTexture": {
          "index": 1
        }
      }
    }
  ],
  "meshes": [
    {
      "name": "Object001_Material #85_0",
      "primitives": [
        {
          "attributes": {
            "NORMAL": 1,
            "POSITION": 0,
            "TANGENT": 2,
            "TEXCOORD_0": 3
          },
          "indices": 4,
          "material": 0,
          "mode": 4
        }
      ]
    },
    {
      "name": "Object002_Material #86_0",
      "primitives": [
        {
          "attributes": {
            "NORMAL": 6,
            "POSITION": 5,
            "TANGENT": 7,
            "TEXCOORD_0": 8
          },
          "indices": 9,
          "material": 1,
          "mode": 4
        }
      ]
    }
  ],
  "nodes": [
    {
      "children": [
        1
      ],
      "matrix": [
        1.0,
        0.0,
        0.0,
        0.0,
        0.0,
        2.220446049250313e-16,
        -1.0,
        0.0,
        0.0,
        1.0,
        2.220446049250313e-16,
        0.0,
        0.0,
        0.0,
        0.0,
        1.0
      ],
      "name": "Sketchfab_model"
    },
    {
      "children": [
        2
      ],
      "matrix": [
        1.0,
        0.0,
        0.0,
        0.0,
        0.0,
        0.0,
        1.0,
        0.0,
        0.0,
        -1.0,
        0.0,
        0.0,
        0.0,
        0.0,
        0.0,
        1.0
      ],
      "name": "spitfire.FBX"
    },
    {
      "children": [
        3,
        5
      ],
      "name": "RootNode"
    },
    {
      "children": [
        4
      ],
      "matrix": [
        0.6908657655878131,
        0.5735765186754554,
        0.4401300616441803,
        0.0,
        0.537299632815298,
        -2.220446049250313e-16,
        -0.843391430224748,
        0.0,
        -0.48374952042902414,
        0.8191519866448138,
        -0.30818245287579926,
        0.0,
        47.47676086425781,
        72.00135040283203,
        28.375707626342773,
        1.0
      ],
      "name": "Object001"
    },
    {
      "mesh": 0,
      "name": "Object001_Material #85_0"
    },
    {
      "children": [
        6
      ],
      "matrix": [
        0.6908657655878131,
        0.5735765186754554,
        0.4401300616441803,
        0.0,
        0.537299632815298,
        -2.220446049250313e-16,
        -0.843391430224748,
        0.0,
        -0.48374952042902414,
        0.8191519866448138,
        -0.30818245287579926,
        0.0,
        47.47676086425781,
        72.00135040283203,
        28.375707626342773,
        1.0
      ],
      "name": "Object002"
    },
    {
      "mesh": 1,
      "name": "Object002_Material #86_0"
    }
  ],
  "samplers": [
    {
      "magFilter": 9729,
      "minFilter": 9987,
      "wrapS": 10497,
      "wrapT": 10497
    }
  ],
  "scene": 0,
  "scenes": [
    {
      "name": "Sketchfab_Scene",
      "nodes": [
        0
      ]
    }
  ],
  "textures": [
    {
      "sampler": 0,
      "source": 0
    },
    {
      "sampler": 0,
      "source": 1
    },
    {
      "sampler": 0,
      "source": 2
    },
    {
      "sampler": 0,
      "source": 3
    }
  ]
}
