<svg version="1.1" viewBox="0.0 0.0 881.2519685039371 455.96325459317586" fill="none" stroke="none" stroke-linecap="square" stroke-miterlimit="10" xmlns:xlink="http://www.w3.org/1999/xlink" xmlns="http://www.w3.org/2000/svg"><clipPath id="p.0"><path d="m0 0l881.25195 0l0 455.96326l-881.25195 0l0 -455.96326z" clip-rule="nonzero"/></clipPath><g clip-path="url(#p.0)"><path fill="#000000" fill-opacity="0.0" d="m0 0l881.25195 0l0 455.96326l-881.25195 0z" fill-rule="evenodd"/><path fill="#cfe2f3" d="m75.661415 196.69292l0 0c0 -5.375 4.357292 -9.732285 9.732285 -9.732285l0 0c2.5811615 0 5.05661 1.0253601 6.8817673 2.850525c1.8251572 1.8251495 2.8505173 4.300598 2.8505173 6.8817596l0 0c0 5.3749847 -4.357292 9.732285 -9.732285 9.732285l0 0c-5.3749924 0 -9.732285 -4.3573 -9.732285 -9.732285z" fill-rule="evenodd"/><path stroke="#000000" stroke-width="1.0" stroke-linejoin="round" stroke-linecap="butt" d="m75.661415 196.69292l0 0c0 -5.375 4.357292 -9.732285 9.732285 -9.732285l0 0c2.5811615 0 5.05661 1.0253601 6.8817673 2.850525c1.8251572 1.8251495 2.8505173 4.300598 2.8505173 6.8817596l0 0c0 5.3749847 -4.357292 9.732285 -9.732285 9.732285l0 0c-5.3749924 0 -9.732285 -4.3573 -9.732285 -9.732285z" fill-rule="evenodd"/><path fill="#000000" fill-opacity="0.0" d="m95.125984 196.69292l239.05511 0" fill-rule="evenodd"/><path stroke="#ff0000" stroke-width="3.0" stroke-linejoin="round" stroke-linecap="butt" d="m95.125984 196.69292l221.05511 0" fill-rule="evenodd"/><path fill="#ff0000" stroke="#ff0000" stroke-width="3.0" stroke-linecap="butt" d="m316.1811 201.64812l13.614319 -4.9552l-13.614319 -4.9552z" fill-rule="evenodd"/><path fill="#cfe2f3" d="m200.75853 196.69292l0 0c0 -5.375 4.3573 -9.732285 9.732285 -9.732285l0 0c2.5811615 0 5.05661 1.0253601 6.8817596 2.850525c1.8251648 1.8251495 2.850525 4.300598 2.850525 6.8817596l0 0c0 5.3749847 -4.3573 9.732285 -9.732285 9.732285l0 0c-5.3749847 0 -9.732285 -4.3573 -9.732285 -9.732285z" fill-rule="evenodd"/><path stroke="#000000" stroke-width="1.0" stroke-linejoin="round" stroke-linecap="butt" d="m200.75853 196.69292l0 0c0 -5.375 4.3573 -9.732285 9.732285 -9.732285l0 0c2.5811615 0 5.05661 1.0253601 6.8817596 2.850525c1.8251648 1.8251495 2.850525 4.300598 2.850525 6.8817596l0 0c0 5.3749847 -4.3573 9.732285 -9.732285 9.732285l0 0c-5.3749847 0 -9.732285 -4.3573 -9.732285 -9.732285z" fill-rule="evenodd"/><path fill="#000000" fill-opacity="0.0" d="m152.0971 27.11811l58.393707 159.84253" fill-rule="evenodd"/><path stroke="#000000" stroke-width="2.0" stroke-linejoin="round" stroke-linecap="butt" d="m152.0971 27.11811l58.393707 159.84253" fill-rule="evenodd"/><path fill="#000000" fill-opacity="0.0" d="m159.05774 362.07874l51.433075 -155.65353" fill-rule="evenodd"/><path stroke="#000000" stroke-width="2.0" stroke-linejoin="round" stroke-linecap="butt" d="m159.05774 362.07874l51.433075 -155.65353" fill-rule="evenodd"/><path fill="#000000" fill-opacity="0.0" d="m179.89764 371.81104l69.51181 0l0 48.472443l-69.51181 0z" fill-rule="evenodd"/><path fill="#000000" d="m194.50702 408.8979q-1.734375 -2.203125 -2.953125 -5.15625q-1.203125 -2.953125 -1.203125 -6.109375q0 -2.796875 0.90625 -5.34375q1.046875 -2.96875 3.25 -5.90625l1.515625 0q-1.421875 2.4375 -1.875 3.46875q-0.71875 1.625 -1.125 3.375q-0.5 2.203125 -0.5 4.40625q0 5.640625 3.5 11.265625l-1.515625 0zm12.0859375 -6.578125q-1.171875 0.984375 -2.265625 1.40625q-1.078125 0.40625 -2.3125 0.40625q-2.046875 0 -3.15625 -1.0q-1.09375 -1.0 -1.09375 -2.5625q0 -0.921875 0.40625 -1.671875q0.421875 -0.75 1.09375 -1.203125q0.671875 -0.46875 1.515625 -0.703125q0.625 -0.15625 1.875 -0.3125q2.5625 -0.3125 3.765625 -0.734375q0.015625 -0.421875 0.015625 -0.546875q0 -1.28125 -0.609375 -1.8125q-0.796875 -0.71875 -2.390625 -0.71875q-1.5 0 -2.203125 0.53125q-0.703125 0.515625 -1.046875 1.84375l-2.0625 -0.28125q0.28125 -1.328125 0.921875 -2.140625q0.640625 -0.8125 1.859375 -1.25q1.21875 -0.453125 2.828125 -0.453125q1.59375 0 2.59375 0.375q1.0 0.375 1.46875 0.953125q0.46875 0.5625 0.65625 1.4375q0.09375 0.53125 0.09375 1.9375l0 2.8125q0 2.9375 0.140625 3.71875q0.140625 0.78125 0.53125 1.5l-2.203125 0q-0.328125 -0.65625 -0.421875 -1.53125zm-0.171875 -4.71875q-1.15625 0.46875 -3.453125 0.796875q-1.296875 0.1875 -1.84375 0.421875q-0.53125 0.234375 -0.828125 0.6875q-0.28125 0.453125 -0.28125 1.0q0 0.84375 0.625 1.40625q0.640625 0.5625 1.875 0.5625q1.21875 0 2.171875 -0.53125q0.953125 -0.53125 1.390625 -1.453125q0.34375 -0.71875 0.34375 -2.109375l0 -0.78125zm6.7851562 11.296875l-1.515625 0q3.5 -5.625 3.5 -11.265625q0 -2.203125 -0.5 -4.359375q-0.390625 -1.765625 -1.109375 -3.375q-0.453125 -1.0625 -1.890625 -3.515625l1.515625 0q2.203125 2.9375 3.25 5.90625q0.90625 2.546875 0.90625 5.34375q0 3.15625 -1.21875 6.109375q-1.203125 2.953125 -2.9375 5.15625z" fill-rule="nonzero"/><path fill="#000000" fill-opacity="0.0" d="m334.1811 162.7559l44.503937 0l0 67.87402l-44.503937 0z" fill-rule="evenodd"/><path fill="#000000" d="m356.63422 194.29652q2.0625 -2.578125 3.203125 -3.40625q1.5625 -1.125 3.3125 -1.125q2.046875 0 3.828125 1.484375q1.796875 1.484375 1.796875 4.78125q0 2.3125 -0.671875 3.625q-0.65625 1.3125 -2.0625 2.125q-1.40625 0.796875 -2.890625 0.796875q-1.75 0 -3.3125 -1.109375q-1.140625 -0.84375 -3.203125 -3.421875q-2.65625 3.34375 -5.640625 3.34375q-1.96875 0 -3.390625 -1.5q-1.40625 -1.5 -1.40625 -3.71875q0 -2.203125 1.40625 -3.703125q1.421875 -1.515625 3.390625 -1.515625q2.984375 0 5.640625 3.34375zm1.359375 1.859375q1.6875 2.625 3.09375 3.609375q0.90625 0.640625 2.015625 0.640625q1.484375 0 2.484375 -1.09375q1.015625 -1.09375 1.015625 -3.078125q0 -2.078125 -1.03125 -3.171875q-1.015625 -1.09375 -2.546875 -1.09375q-0.953125 0 -1.796875 0.546875q-1.125 0.765625 -3.234375 3.640625zm-2.703125 0.015625q-1.5625 -1.953125 -2.5 -2.5q-0.9375 -0.5625 -1.796875 -0.5625q-1.125 0 -1.890625 0.796875q-0.75 0.796875 -0.75 2.203125q0 1.390625 0.78125 2.21875q0.78125 0.828125 1.90625 0.828125q1.96875 0 4.25 -2.984375z" fill-rule="nonzero"/><path fill="#000000" fill-opacity="0.0" d="m32.587925 172.4567l44.50394 0l0 48.472443l-44.50394 0z" fill-rule="evenodd"/><path fill="#000000" d="m43.16605 209.26231l0 -17.21875l1.921875 0l0 1.625q0.6875 -0.953125 1.53125 -1.421875q0.859375 -0.484375 2.078125 -0.484375q1.59375 0 2.8125 0.828125q1.21875 0.8125 1.84375 2.3125q0.625 1.5 0.625 3.28125q0 1.90625 -0.6875 3.4375q-0.6875 1.53125 -2.0 2.34375q-1.296875 0.8125 -2.734375 0.8125q-1.0625 0 -1.90625 -0.4375q-0.828125 -0.453125 -1.375 -1.140625l0 6.0625l-2.109375 0zm1.921875 -10.921875q0 2.40625 0.96875 3.5625q0.96875 1.140625 2.359375 1.140625q1.40625 0 2.40625 -1.1875q1.0 -1.1875 1.0 -3.6875q0 -2.375 -0.984375 -3.5625q-0.96875 -1.1875 -2.328125 -1.1875q-1.359375 0 -2.390625 1.265625q-1.03125 1.25 -1.03125 3.65625z" fill-rule="nonzero"/><path fill="#cfe2f3" d="m531.66144 196.69292l0 0c0 -5.375 4.3573 -9.732285 9.732239 -9.732285l0 0c2.5811768 0 5.0566406 1.0253601 6.881775 2.850525c1.8251953 1.8251495 2.850525 4.300598 2.850525 6.8817596l0 0c0 5.3749847 -4.3573 9.732285 -9.7323 9.732285l0 0c-5.374939 0 -9.732239 -4.3573 -9.732239 -9.732285z" fill-rule="evenodd"/><path stroke="#000000" stroke-width="1.0" stroke-linejoin="round" stroke-linecap="butt" d="m531.66144 196.69292l0 0c0 -5.375 4.3573 -9.732285 9.732239 -9.732285l0 0c2.5811768 0 5.0566406 1.0253601 6.881775 2.850525c1.8251953 1.8251495 2.850525 4.300598 2.850525 6.8817596l0 0c0 5.3749847 -4.3573 9.732285 -9.7323 9.732285l0 0c-5.374939 0 -9.732239 -4.3573 -9.732239 -9.732285z" fill-rule="evenodd"/><path fill="#000000" fill-opacity="0.0" d="m551.126 196.69292l239.05511 0" fill-rule="evenodd"/><path stroke="#ff0000" stroke-width="3.0" stroke-linejoin="round" stroke-linecap="butt" d="m551.126 196.69292l221.05511 0" fill-rule="evenodd"/><path fill="#ff0000" stroke="#ff0000" stroke-width="3.0" stroke-linecap="butt" d="m772.1811 201.64812l13.614319 -4.9552l-13.614319 -4.9552z" fill-rule="evenodd"/><path fill="#cfe2f3" d="m656.75854 196.69292l0 0c0 -5.375 4.3573 -9.732285 9.732239 -9.732285l0 0c2.5811768 0 5.0566406 1.0253601 6.881775 2.850525c1.8251953 1.8251495 2.850525 4.300598 2.850525 6.8817596l0 0c0 5.3749847 -4.3573 9.732285 -9.7323 9.732285l0 0c-5.374939 0 -9.732239 -4.3573 -9.732239 -9.732285z" fill-rule="evenodd"/><path stroke="#000000" stroke-width="1.0" stroke-linejoin="round" stroke-linecap="butt" d="m656.75854 196.69292l0 0c0 -5.375 4.3573 -9.732285 9.732239 -9.732285l0 0c2.5811768 0 5.0566406 1.0253601 6.881775 2.850525c1.8251953 1.8251495 2.850525 4.300598 2.850525 6.8817596l0 0c0 5.3749847 -4.3573 9.732285 -9.7323 9.732285l0 0c-5.374939 0 -9.732239 -4.3573 -9.732239 -9.732285z" fill-rule="evenodd"/><path fill="#000000" fill-opacity="0.0" d="m795.07336 341.99988l-121.700806 -138.4252" fill-rule="evenodd"/><path stroke="#000000" stroke-width="2.0" stroke-linejoin="round" stroke-linecap="butt" d="m795.07336 341.99988l-121.700806 -138.4252" fill-rule="evenodd"/><path fill="#000000" fill-opacity="0.0" d="m615.05774 362.07874l51.433044 -155.65353" fill-rule="evenodd"/><path stroke="#000000" stroke-width="2.0" stroke-linejoin="round" stroke-linecap="butt" d="m615.05774 362.07874l51.433044 -155.65353" fill-rule="evenodd"/><path fill="#000000" fill-opacity="0.0" d="m631.7349 371.81104l69.51178 0l0 48.472443l-69.51178 0z" fill-rule="evenodd"/><path fill="#000000" d="m646.3443 408.8979q-1.734375 -2.203125 -2.953125 -5.15625q-1.203125 -2.953125 -1.203125 -6.109375q0 -2.796875 0.90625 -5.34375q1.046875 -2.96875 3.25 -5.90625l1.515625 0q-1.421875 2.4375 -1.875 3.46875q-0.71875 1.625 -1.125 3.375q-0.5 2.203125 -0.5 4.40625q0 5.640625 3.5 11.265625l-1.515625 0zm5.9140625 -5.046875l-1.953125 0l0 -17.1875l2.109375 0l0 6.140625q1.328125 -1.6875 3.40625 -1.6875q1.140625 0 2.171875 0.46875q1.03125 0.46875 1.6875 1.3125q0.65625 0.828125 1.03125 2.015625q0.375 1.171875 0.375 2.53125q0 3.1875 -1.578125 4.9375q-1.578125 1.75 -3.796875 1.75q-2.203125 0 -3.453125 -1.84375l0 1.5625zm-0.03125 -6.3125q0 2.234375 0.609375 3.234375q1.0 1.625 2.703125 1.625q1.375 0 2.375 -1.203125q1.015625 -1.203125 1.015625 -3.578125q0 -2.4375 -0.96875 -3.59375q-0.953125 -1.171875 -2.328125 -1.171875q-1.390625 0 -2.40625 1.203125q-1.0 1.203125 -1.0 3.484375zm12.816406 11.359375l-1.515625 0q3.5 -5.625 3.5 -11.265625q0 -2.203125 -0.5 -4.359375q-0.390625 -1.765625 -1.109375 -3.375q-0.453125 -1.0625 -1.890625 -3.515625l1.515625 0q2.203125 2.9375 3.25 5.90625q0.90625 2.546875 0.90625 5.34375q0 3.15625 -1.21875 6.109375q-1.203125 2.953125 -2.9375 5.15625z" fill-rule="nonzero"/><path fill="#000000" fill-opacity="0.0" d="m790.1811 162.7559l44.503967 0l0 67.87402l-44.503967 0z" fill-rule="evenodd"/><path fill="#000000" d="m812.6342 194.29652q2.0625 -2.578125 3.203125 -3.40625q1.5625 -1.125 3.3125 -1.125q2.046875 0 3.828125 1.484375q1.796875 1.484375 1.796875 4.78125q0 2.3125 -0.671875 3.625q-0.65625 1.3125 -2.0625 2.125q-1.40625 0.796875 -2.890625 0.796875q-1.75 0 -3.3125 -1.109375q-1.140625 -0.84375 -3.203125 -3.421875q-2.65625 3.34375 -5.640625 3.34375q-1.96875 0 -3.390625 -1.5q-1.40625 -1.5 -1.40625 -3.71875q0 -2.203125 1.40625 -3.703125q1.421875 -1.515625 3.390625 -1.515625q2.984375 0 5.640625 3.34375zm1.359375 1.859375q1.6875 2.625 3.09375 3.609375q0.90625 0.640625 2.015625 0.640625q1.484375 0 2.484375 -1.09375q1.015625 -1.09375 1.015625 -3.078125q0 -2.078125 -1.03125 -3.171875q-1.015625 -1.09375 -2.546875 -1.09375q-0.953125 0 -1.796875 0.546875q-1.125 0.765625 -3.234375 3.640625zm-2.703125 0.015625q-1.5625 -1.953125 -2.5 -2.5q-0.9375 -0.5625 -1.796875 -0.5625q-1.125 0 -1.890625 0.796875q-0.75 0.796875 -0.75 2.203125q0 1.390625 0.78125 2.21875q0.78125 0.828125 1.90625 0.828125q1.96875 0 4.25 -2.984375z" fill-rule="nonzero"/><path fill="#000000" fill-opacity="0.0" d="m488.58792 172.4567l44.503937 0l0 48.472443l-44.503937 0z" fill-rule="evenodd"/><path fill="#000000" d="m499.16605 209.26231l0 -17.21875l1.921875 0l0 1.625q0.6875 -0.953125 1.53125 -1.421875q0.859375 -0.484375 2.078125 -0.484375q1.59375 0 2.8125 0.828125q1.21875 0.8125 1.84375 2.3125q0.625 1.5 0.625 3.28125q0 1.90625 -0.6875 3.4375q-0.6875 1.53125 -2.0 2.34375q-1.296875 0.8125 -2.734375 0.8125q-1.0625 0 -1.90625 -0.4375q-0.828125 -0.453125 -1.375 -1.140625l0 6.0625l-2.109375 0zm1.921875 -10.921875q0 2.40625 0.96875 3.5625q0.96875 1.140625 2.359375 1.140625q1.40625 0 2.40625 -1.1875q1.0 -1.1875 1.0 -3.6875q0 -2.375 -0.984375 -3.5625q-0.96875 -1.1875 -2.328125 -1.1875q-1.359375 0 -2.390625 1.265625q-1.03125 1.25 -1.03125 3.65625z" fill-rule="nonzero"/></g></svg>