{
    "asset" : {
        "generator" : "Khronos glTF Blender I/O v1.4.40",
        "version" : "2.0"
    },
    "extensionsUsed" : [
        "KHR_materials_transmission"
    ],
    "scene" : 0,
    "scenes" : [
        {
            "name" : "Scene",
            "nodes" : [
                0
            ]
        }
    ],
    "nodes" : [
        {
            "mesh" : 0,
            "name" : "Nervenzelle",
            "translation" : [
                0,
                -15.093713760375977,
                0
            ]
        }
    ],
    "materials" : [
        {
            "alphaMode" : "BLEND",
            "extensions" : {
                "KHR_materials_transmission" : {
                    "transmissionFactor" : 1
                }
            },
            "name" : "ENV_Nervenzelle",
            "normalTexture" : {
                "index" : 0,
                "scale" : 1.5,
                "texCoord" : 0
            },
            "pbrMetallicRoughness" : {
                "baseColorTexture" : {
                    "index" : 1,
                    "texCoord" : 0
                },
                "roughnessFactor" : 0.19090908765792847
            }
        }
    ],
    "meshes" : [
        {
            "name" : "Cube",
            "primitives" : [
                {
                    "attributes" : {
                        "POSITION" : 0,
                        "NORMAL" : 1,
                        "TEXCOORD_0" : 2
                    },
                    "indices" : 3,
                    "material" : 0
                }
            ]
        }
    ],
    "textures" : [
        {
            "sampler" : 0,
            "source" : 0
        },
        {
            "sampler" : 0,
            "source" : 1
        }
    ],
    "images" : [
        {
            "mimeType" : "image/png",
            "name" : "normal",
            "uri" : "normal.png"
        },
        {
            "mimeType" : "image/png",
            "name" : "alphaTex",
            "uri" : "alphaTex.png"
        }
    ],
    "accessors" : [
        {
            "bufferView" : 0,
            "componentType" : 5126,
            "count" : 13134,
            "max" : [
                7.873629093170166,
                47.273380279541016,
                11.362889289855957
            ],
            "min" : [
                -5.115760803222656,
                -12.582023620605469,
                -6.811426162719727
            ],
            "type" : "VEC3"
        },
        {
            "bufferView" : 1,
            "componentType" : 5126,
            "count" : 13134,
            "type" : "VEC3"
        },
        {
            "bufferView" : 2,
            "componentType" : 5126,
            "count" : 13134,
            "type" : "VEC2"
        },
        {
            "bufferView" : 3,
            "componentType" : 5123,
            "count" : 63552,
            "type" : "SCALAR"
        }
    ],
    "bufferViews" : [
        {
            "buffer" : 0,
            "byteLength" : 157608,
            "byteOffset" : 0
        },
        {
            "buffer" : 0,
            "byteLength" : 157608,
            "byteOffset" : 157608
        },
        {
            "buffer" : 0,
            "byteLength" : 105072,
            "byteOffset" : 315216
        },
        {
            "buffer" : 0,
            "byteLength" : 127104,
            "byteOffset" : 420288
        }
    ],
    "samplers" : [
        {
            "magFilter" : 9729,
            "minFilter" : 9986
        }
    ],
    "buffers" : [
        {
            "byteLength" : 547392,
            "uri" : "Nervenzelle.bin"
        }
    ]
}
