{
    "asset" : {
        "generator" : "Khronos glTF Blender I/O v1.2.75",
        "version" : "2.0"
    },
    "scene" : 0,
    "scenes" : [
        {
            "name" : "Scene",
            "nodes" : [
                0
            ]
        }
    ],
    "nodes" : [
        {
            "mesh" : 0,
            "name" : "Urogenitaltrakt"
        }
    ],
    "materials" : [
        {
            "doubleSided" : true,
            "emissiveFactor" : [
                0,
                0,
                0
            ],
            "name" : "all",
            "normalTexture" : {
                "index" : 0,
                "texCoord" : 0
            },
            "pbrMetallicRoughness" : {
                "baseColorTexture" : {
                    "index" : 1,
                    "texCoord" : 0
                },
                "metallicFactor" : 0,
                "roughnessFactor" : 0.14191535115242004
            }
        }
    ],
    "meshes" : [
        {
            "name" : "Cube.003",
            "primitives" : [
                {
                    "attributes" : {
                        "POSITION" : 0,
                        "NORMAL" : 1,
                        "TEXCOORD_0" : 2
                    },
                    "indices" : 3,
                    "material" : 0
                }
            ]
        }
    ],
    "textures" : [
        {
            "source" : 0
        },
        {
            "source" : 1
        }
    ],
    "images" : [
        {
            "mimeType" : "image/jpeg",
            "name" : "normal",
            "uri" : "normal.jpg"
        },
        {
            "mimeType" : "image/jpeg",
            "name" : "all",
            "uri" : "all.jpg"
        }
    ],
    "accessors" : [
        {
            "bufferView" : 0,
            "componentType" : 5126,
            "count" : 149581,
            "max" : [
                0.20941661298274994,
                0.39684194326400757,
                0.25425150990486145
            ],
            "min" : [
                -0.20941659808158875,
                -0.39793533086776733,
                -0.05522748827934265
            ],
            "type" : "VEC3"
        },
        {
            "bufferView" : 1,
            "componentType" : 5126,
            "count" : 149581,
            "type" : "VEC3"
        },
        {
            "bufferView" : 2,
            "componentType" : 5126,
            "count" : 149581,
            "type" : "VEC2"
        },
        {
            "bufferView" : 3,
            "componentType" : 5125,
            "count" : 746298,
            "type" : "SCALAR"
        }
    ],
    "bufferViews" : [
        {
            "buffer" : 0,
            "byteLength" : 1794972,
            "byteOffset" : 0
        },
        {
            "buffer" : 0,
            "byteLength" : 1794972,
            "byteOffset" : 1794972
        },
        {
            "buffer" : 0,
            "byteLength" : 1196648,
            "byteOffset" : 3589944
        },
        {
            "buffer" : 0,
            "byteLength" : 2985192,
            "byteOffset" : 4786592
        }
    ],
    "buffers" : [
        {
            "byteLength" : 7771784,
            "uri" : "Uro.bin"
        }
    ]
}
