{
    "asset" : {
        "generator" : "Khronos glTF Blender I/O v3.4.50",
        "version" : "2.0"
    },
    "extensionsUsed" : [
        "KHR_materials_specular",
        "KHR_materials_ior"
    ],
    "scene" : 0,
    "scenes" : [
        {
            "name" : "Scene",
            "nodes" : [
                0
            ]
        }
    ],
    "nodes" : [
        {
            "mesh" : 0,
            "name" : "Gallenwege",
            "translation" : [
                0,
                -0.22874386608600616,
                -0.048856865614652634
            ]
        }
    ],
    "materials" : [
        {
            "doubleSided" : true,
            "name" : "Gallenblase",
            "normalTexture" : {
                "index" : 0,
                "scale" : 1.2000000476837158
            },
            "pbrMetallicRoughness" : {
                "baseColorTexture" : {
                    "index" : 1
                },
                "metallicFactor" : 0,
                "roughnessFactor" : 0.5
            }
        },
        {
            "doubleSided" : true,
            "name" : "Leber",
            "normalTexture" : {
                "index" : 2,
                "scale" : 1.2000000476837158
            },
            "pbrMetallicRoughness" : {
                "baseColorTexture" : {
                    "index" : 3
                },
                "metallicFactor" : 0,
                "roughnessFactor" : 0.5
            }
        },
        {
            "doubleSided" : true,
            "extensions" : {
                "KHR_materials_specular" : {
                    "specularColorFactor" : [
                        1.0671108982298434,
                        1.0671108982298434,
                        1.0671108982298434
                    ]
                },
                "KHR_materials_ior" : {
                    "ior" : 1.4500000476837158
                }
            },
            "name" : "Magen",
            "normalTexture" : {
                "index" : 4,
                "scale" : 1.2000000476837158
            },
            "pbrMetallicRoughness" : {
                "baseColorTexture" : {
                    "index" : 5
                },
                "metallicFactor" : 0,
                "roughnessFactor" : 0.5
            }
        },
        {
            "doubleSided" : true,
            "name" : "Lumen",
            "normalTexture" : {
                "index" : 6,
                "scale" : 1.2000000476837158
            },
            "pbrMetallicRoughness" : {
                "baseColorTexture" : {
                    "index" : 7
                },
                "metallicFactor" : 0
            }
        },
        {
            "doubleSided" : true,
            "name" : "Milz",
            "normalTexture" : {
                "index" : 8,
                "scale" : 1.2000000476837158
            },
            "pbrMetallicRoughness" : {
                "baseColorTexture" : {
                    "index" : 9
                },
                "metallicFactor" : 0,
                "roughnessFactor" : 0.5
            }
        },
        {
            "doubleSided" : true,
            "name" : "Pankreas",
            "normalTexture" : {
                "index" : 10,
                "scale" : 1.2000000476837158
            },
            "pbrMetallicRoughness" : {
                "baseColorTexture" : {
                    "index" : 11
                },
                "metallicFactor" : 0,
                "roughnessFactor" : 0.5
            }
        }
    ],
    "meshes" : [
        {
            "name" : "Gallenwege",
            "primitives" : [
                {
                    "attributes" : {
                        "POSITION" : 0,
                        "TEXCOORD_0" : 1,
                        "NORMAL" : 2
                    },
                    "indices" : 3,
                    "material" : 0
                },
                {
                    "attributes" : {
                        "POSITION" : 4,
                        "TEXCOORD_0" : 5,
                        "NORMAL" : 6
                    },
                    "indices" : 7,
                    "material" : 1
                },
                {
                    "attributes" : {
                        "POSITION" : 8,
                        "TEXCOORD_0" : 9,
                        "NORMAL" : 10
                    },
                    "indices" : 11,
                    "material" : 2
                },
                {
                    "attributes" : {
                        "POSITION" : 12,
                        "TEXCOORD_0" : 13,
                        "NORMAL" : 14
                    },
                    "indices" : 15,
                    "material" : 3
                },
                {
                    "attributes" : {
                        "POSITION" : 16,
                        "TEXCOORD_0" : 17,
                        "NORMAL" : 18
                    },
                    "indices" : 19,
                    "material" : 4
                },
                {
                    "attributes" : {
                        "POSITION" : 20,
                        "TEXCOORD_0" : 21,
                        "NORMAL" : 22
                    },
                    "indices" : 23,
                    "material" : 5
                }
            ]
        }
    ],
    "textures" : [
        {
            "sampler" : 0,
            "source" : 0
        },
        {
            "sampler" : 0,
            "source" : 1
        },
        {
            "sampler" : 0,
            "source" : 0
        },
        {
            "sampler" : 0,
            "source" : 1
        },
        {
            "sampler" : 0,
            "source" : 0
        },
        {
            "sampler" : 0,
            "source" : 1
        },
        {
            "sampler" : 0,
            "source" : 0
        },
        {
            "sampler" : 0,
            "source" : 1
        },
        {
            "sampler" : 0,
            "source" : 0
        },
        {
            "sampler" : 0,
            "source" : 1
        },
        {
            "sampler" : 0,
            "source" : 0
        },
        {
            "sampler" : 0,
            "source" : 1
        }
    ],
    "images" : [
        {
            "mimeType" : "image/jpeg",
            "name" : "normal",
            "uri" : "normal.jpg"
        },
        {
            "mimeType" : "image/jpeg",
            "name" : "tex",
            "uri" : "tex.jpg"
        }
    ],
    "accessors" : [
        {
            "bufferView" : 0,
            "componentType" : 5126,
            "count" : 20644,
            "max" : [
                0.1449214220046997,
                0.25506916642189026,
                0.12989524006843567
            ],
            "min" : [
                -0.14815352857112885,
                0.10116977989673615,
                -0.004308330360800028
            ],
            "type" : "VEC3"
        },
        {
            "bufferView" : 1,
            "componentType" : 5126,
            "count" : 20644,
            "type" : "VEC2"
        },
        {
            "bufferView" : 2,
            "componentType" : 5126,
            "count" : 20644,
            "type" : "VEC3"
        },
        {
            "bufferView" : 3,
            "componentType" : 5123,
            "count" : 101760,
            "type" : "SCALAR"
        },
        {
            "bufferView" : 4,
            "componentType" : 5126,
            "count" : 7872,
            "max" : [
                0.13299575448036194,
                0.38587120175361633,
                0.1413339078426361
            ],
            "min" : [
                -0.24245163798332214,
                0.1653594821691513,
                -0.05128222703933716
            ],
            "type" : "VEC3"
        },
        {
            "bufferView" : 5,
            "componentType" : 5126,
            "count" : 7872,
            "type" : "VEC2"
        },
        {
            "bufferView" : 6,
            "componentType" : 5126,
            "count" : 7872,
            "type" : "VEC3"
        },
        {
            "bufferView" : 7,
            "componentType" : 5123,
            "count" : 37344,
            "type" : "SCALAR"
        },
        {
            "bufferView" : 8,
            "componentType" : 5126,
            "count" : 11785,
            "max" : [
                0.18990223109722137,
                0.44971907138824463,
                0.14363577961921692
            ],
            "min" : [
                -0.15719501674175262,
                0.06248679757118225,
                -0.0348166823387146
            ],
            "type" : "VEC3"
        },
        {
            "bufferView" : 9,
            "componentType" : 5126,
            "count" : 11785,
            "type" : "VEC2"
        },
        {
            "bufferView" : 10,
            "componentType" : 5126,
            "count" : 11785,
            "type" : "VEC3"
        },
        {
            "bufferView" : 11,
            "componentType" : 5123,
            "count" : 56640,
            "type" : "SCALAR"
        },
        {
            "bufferView" : 12,
            "componentType" : 5126,
            "count" : 470,
            "max" : [
                0.02794373407959938,
                0.4471559226512909,
                0.07139807194471359
            ],
            "min" : [
                -0.02117951400578022,
                0.09859061986207962,
                -0.032819341868162155
            ],
            "type" : "VEC3"
        },
        {
            "bufferView" : 13,
            "componentType" : 5126,
            "count" : 470,
            "type" : "VEC2"
        },
        {
            "bufferView" : 14,
            "componentType" : 5126,
            "count" : 470,
            "type" : "VEC3"
        },
        {
            "bufferView" : 15,
            "componentType" : 5123,
            "count" : 2400,
            "type" : "SCALAR"
        },
        {
            "bufferView" : 16,
            "componentType" : 5126,
            "count" : 2943,
            "max" : [
                0.23336024582386017,
                0.3574892580509186,
                0.05796639248728752
            ],
            "min" : [
                0.11591073870658875,
                0.19989842176437378,
                -0.05891750752925873
            ],
            "type" : "VEC3"
        },
        {
            "bufferView" : 17,
            "componentType" : 5126,
            "count" : 2943,
            "type" : "VEC2"
        },
        {
            "bufferView" : 18,
            "componentType" : 5126,
            "count" : 2943,
            "type" : "VEC3"
        },
        {
            "bufferView" : 19,
            "componentType" : 5123,
            "count" : 14208,
            "type" : "SCALAR"
        },
        {
            "bufferView" : 20,
            "componentType" : 5126,
            "count" : 6221,
            "max" : [
                0.18031102418899536,
                0.2713397145271301,
                0.0777246356010437
            ],
            "min" : [
                -0.1211831197142601,
                0.09497480094432831,
                -0.012452919967472553
            ],
            "type" : "VEC3"
        },
        {
            "bufferView" : 21,
            "componentType" : 5126,
            "count" : 6221,
            "type" : "VEC2"
        },
        {
            "bufferView" : 22,
            "componentType" : 5126,
            "count" : 6221,
            "type" : "VEC3"
        },
        {
            "bufferView" : 23,
            "componentType" : 5123,
            "count" : 27648,
            "type" : "SCALAR"
        }
    ],
    "bufferViews" : [
        {
            "buffer" : 0,
            "byteLength" : 247728,
            "byteOffset" : 0,
            "target" : 34962
        },
        {
            "buffer" : 0,
            "byteLength" : 165152,
            "byteOffset" : 247728,
            "target" : 34962
        },
        {
            "buffer" : 0,
            "byteLength" : 247728,
            "byteOffset" : 412880,
            "target" : 34962
        },
        {
            "buffer" : 0,
            "byteLength" : 203520,
            "byteOffset" : 660608,
            "target" : 34963
        },
        {
            "buffer" : 0,
            "byteLength" : 94464,
            "byteOffset" : 864128,
            "target" : 34962
        },
        {
            "buffer" : 0,
            "byteLength" : 62976,
            "byteOffset" : 958592,
            "target" : 34962
        },
        {
            "buffer" : 0,
            "byteLength" : 94464,
            "byteOffset" : 1021568,
            "target" : 34962
        },
        {
            "buffer" : 0,
            "byteLength" : 74688,
            "byteOffset" : 1116032,
            "target" : 34963
        },
        {
            "buffer" : 0,
            "byteLength" : 141420,
            "byteOffset" : 1190720,
            "target" : 34962
        },
        {
            "buffer" : 0,
            "byteLength" : 94280,
            "byteOffset" : 1332140,
            "target" : 34962
        },
        {
            "buffer" : 0,
            "byteLength" : 141420,
            "byteOffset" : 1426420,
            "target" : 34962
        },
        {
            "buffer" : 0,
            "byteLength" : 113280,
            "byteOffset" : 1567840,
            "target" : 34963
        },
        {
            "buffer" : 0,
            "byteLength" : 5640,
            "byteOffset" : 1681120,
            "target" : 34962
        },
        {
            "buffer" : 0,
            "byteLength" : 3760,
            "byteOffset" : 1686760,
            "target" : 34962
        },
        {
            "buffer" : 0,
            "byteLength" : 5640,
            "byteOffset" : 1690520,
            "target" : 34962
        },
        {
            "buffer" : 0,
            "byteLength" : 4800,
            "byteOffset" : 1696160,
            "target" : 34963
        },
        {
            "buffer" : 0,
            "byteLength" : 35316,
            "byteOffset" : 1700960,
            "target" : 34962
        },
        {
            "buffer" : 0,
            "byteLength" : 23544,
            "byteOffset" : 1736276,
            "target" : 34962
        },
        {
            "buffer" : 0,
            "byteLength" : 35316,
            "byteOffset" : 1759820,
            "target" : 34962
        },
        {
            "buffer" : 0,
            "byteLength" : 28416,
            "byteOffset" : 1795136,
            "target" : 34963
        },
        {
            "buffer" : 0,
            "byteLength" : 74652,
            "byteOffset" : 1823552,
            "target" : 34962
        },
        {
            "buffer" : 0,
            "byteLength" : 49768,
            "byteOffset" : 1898204,
            "target" : 34962
        },
        {
            "buffer" : 0,
            "byteLength" : 74652,
            "byteOffset" : 1947972,
            "target" : 34962
        },
        {
            "buffer" : 0,
            "byteLength" : 55296,
            "byteOffset" : 2022624,
            "target" : 34963
        }
    ],
    "samplers" : [
        {
            "magFilter" : 9729,
            "minFilter" : 9987
        }
    ],
    "buffers" : [
        {
            "byteLength" : 2077920,
            "uri" : "model.bin"
        }
    ]
}
